<svg xmlns="http://www.w3.org/2000/svg" width="20" height="20" viewBox="0 0 20 20">
    <path fill="#F3BA2D" fill-rule="evenodd" d="M10 0c5.523 0 10 4.477 10 10s-4.477 10-10 10S0 15.523 0 10 4.477 0 10 0zm2.349 10.935l-2.325 2.324-2.323-2.323-1.354 1.35 3.677 3.677 3.677-3.676-1.352-1.352zM10.024 8.61L9.011 9.623l-.117.116-.24.24-.002.003.002.002 1.37 1.37 1.372-1.372V9.98l-1.372-1.372zm-4.63.02L4.044 9.982l1.352 1.352 1.352-1.352L5.395 8.63zm9.26.001l-1.351 1.352 1.351 1.352 1.352-1.352-1.352-1.352zM10.024 4L6.35 7.675l1.352 1.352 2.323-2.323 2.325 2.324 1.352-1.352L10.024 4z"/>
</svg>
